<svg width="100%" height="100%" viewBox="0 0 136 42" fill="none" xmlns="http://www.w3.org/2000/svg">
<path d="M84.271 32.5451C76.3773 38.3635 64.9358 41.4677 55.0849 41.4677C41.2723 41.4677 28.8374 36.359 19.4299 27.8621C18.6908 27.1939 19.3531 26.2834 20.24 26.8037C30.3925 32.7107 42.9456 36.2644 55.9127 36.2644C64.6579 36.2644 74.2782 34.455 83.1239 30.7003C84.4602 30.1327 85.5778 31.5754 84.271 32.5451Z" fill="currentColor"/>
<path d="M87.5528 28.7903C86.5476 27.5013 80.883 28.1813 78.3405 28.4828C77.5659 28.5774 77.4476 27.9034 78.1454 27.4185C82.6569 24.2433 90.0599 25.1598 90.9232 26.2241C91.7865 27.2943 90.6985 34.715 86.4589 38.2569C85.8085 38.8009 85.1876 38.5111 85.4774 37.7898C86.4294 35.4128 88.5639 30.0852 87.5528 28.7903Z" fill="currentColor"/>
<path d="M78.5179 5.00279V1.91625C78.5179 1.44913 78.8726 1.13574 79.2984 1.13574H93.1169C93.5603 1.13574 93.9151 1.45504 93.9151 1.91625V4.55932C93.9092 5.00279 93.5367 5.58226 92.8744 6.49876L85.7139 16.7222C88.3747 16.6572 91.1833 17.0533 93.5958 18.4133C94.1398 18.7208 94.2876 19.1701 94.329 19.6136V22.9071C94.329 23.3565 93.8323 23.8827 93.312 23.6108C89.0606 21.3816 83.4138 21.1391 78.713 23.6344C78.234 23.8946 77.7314 23.3742 77.7314 22.9249V19.7969C77.7314 19.2943 77.7374 18.4369 78.24 17.6742L86.5358 5.77738H79.3161C78.8726 5.77738 78.5179 5.464 78.5179 5.00279Z" fill="currentColor"/>
<path d="M28.1103 24.2611H23.9062C23.5041 24.2315 23.1848 23.93 23.1553 23.5456V1.96939C23.1553 1.53775 23.516 1.1948 23.9653 1.1948H27.8856C28.2936 1.21252 28.6188 1.52592 28.6484 1.91617V4.73664H28.7252C29.7482 2.01078 31.6699 0.739502 34.2597 0.739502C36.891 0.739502 38.5348 2.01078 39.7174 4.73664C40.7344 2.01078 43.0463 0.739502 45.5238 0.739502C47.2859 0.739502 49.2135 1.46679 50.3902 3.09876C51.7206 4.91402 51.4486 7.55119 51.4486 9.86314L51.4427 23.4806C51.4427 23.9122 51.082 24.2611 50.6326 24.2611H46.4344C46.0146 24.2315 45.6776 23.8945 45.6776 23.4806V12.045C45.6776 11.1344 45.7604 8.86386 45.5593 8.00057C45.2459 6.55191 44.3058 6.14391 43.0877 6.14391C42.0707 6.14391 41.0064 6.8239 40.5747 7.91188C40.1431 8.99985 40.1845 10.821 40.1845 12.045V23.4806C40.1845 23.9122 39.8238 24.2611 39.3744 24.2611H35.1762C34.7505 24.2315 34.4194 23.8945 34.4194 23.4806L34.4135 12.045C34.4135 9.63845 34.8096 6.09661 31.8236 6.09661C28.8021 6.09661 28.9204 9.54975 28.9204 12.045V23.4806C28.9204 23.9122 28.5597 24.2611 28.1103 24.2611Z" fill="currentColor"/>
<path d="M105.812 0.739502C112.05 0.739502 115.426 6.09661 115.426 12.9083C115.426 19.4894 111.695 24.7105 105.812 24.7105C99.686 24.7105 96.3511 19.3534 96.3511 12.6777C96.3511 5.96061 99.7274 0.739502 105.812 0.739502ZM105.847 5.14463C102.749 5.14463 102.554 9.36645 102.554 11.9977C102.554 14.6349 102.512 20.264 105.812 20.264C109.07 20.264 109.224 15.7228 109.224 12.9556C109.224 11.1344 109.147 8.95846 108.597 7.23189C108.124 5.73001 107.184 5.14463 105.847 5.14463Z" fill="currentColor"/>
<path d="M123.515 24.2611H119.329C118.909 24.2315 118.572 23.8945 118.572 23.4806L118.566 1.89843C118.601 1.50227 118.95 1.1948 119.376 1.1948H123.273C123.639 1.21252 123.941 1.46088 124.024 1.79792V5.09732H124.1C125.277 2.14678 126.927 0.739502 129.83 0.739502C131.716 0.739502 133.555 1.41949 134.738 3.28206C135.838 5.00863 135.838 7.91188 135.838 9.99913V23.5811C135.79 23.9595 135.441 24.2611 135.027 24.2611H130.812C130.427 24.2315 130.108 23.9477 130.067 23.5811V11.8617C130.067 9.50245 130.339 6.0493 127.435 6.0493C126.412 6.0493 125.472 6.73521 125.005 7.77588C124.414 9.09446 124.337 10.4071 124.337 11.8617V23.4806C124.331 23.9122 123.964 24.2611 123.515 24.2611Z" fill="currentColor"/>
<path d="M67.5018 13.9548V13.0442C64.4626 13.0442 61.2519 13.6946 61.2519 17.2779C61.2519 19.0931 62.192 20.323 63.8062 20.323C64.9888 20.323 66.0472 19.5957 66.7154 18.4131C67.5432 16.9586 67.5018 15.5927 67.5018 13.9548ZM71.7414 24.2019C71.4635 24.4502 71.0614 24.468 70.748 24.3024C69.3526 23.1435 69.1042 22.6054 68.3355 21.4997C66.0295 23.853 64.3975 24.5567 61.4056 24.5567C57.8697 24.5567 55.1143 22.3748 55.1143 18.0052C55.1143 14.5934 56.965 12.2696 59.5962 11.1343C61.8786 10.1291 65.0657 9.95175 67.5018 9.67385V9.12986C67.5018 8.13057 67.5787 6.94799 66.9933 6.08471C66.4789 5.31011 65.4973 4.99081 64.6341 4.99081C63.0317 4.99081 61.6007 5.81271 61.2519 7.51563C61.1809 7.89406 60.903 8.26657 60.5246 8.28431L56.4447 7.84675C56.1017 7.76989 55.7233 7.49198 55.8179 6.96573C56.758 2.02253 61.2223 0.532471 65.2194 0.532471C67.2653 0.532471 69.9379 1.07646 71.5522 2.62564C73.598 4.53552 73.4029 7.08398 73.4029 9.85715V16.4087C73.4029 18.3777 74.2189 19.2409 74.9876 20.3053C75.2596 20.6837 75.3187 21.139 74.9758 21.4228C74.1184 22.1383 72.5928 23.4687 71.7532 24.2137L71.7414 24.2019" fill="currentColor"/>
<path d="M12.3876 13.9548V13.0442C9.34832 13.0442 6.13761 13.6946 6.13761 17.2779C6.13761 19.0931 7.07776 20.323 8.69199 20.323C9.87457 20.323 10.933 19.5957 11.6011 18.4131C12.429 16.9586 12.3876 15.5927 12.3876 13.9548ZM16.6271 24.2019C16.3492 24.4502 15.9471 24.468 15.6338 24.3024C14.2383 23.1435 13.99 22.6054 13.2213 21.4997C10.9152 23.853 9.28329 24.5567 6.29134 24.5567C2.75542 24.5567 0 22.3748 0 18.0052C0 14.5934 1.85074 12.2696 4.48199 11.1343C6.76438 10.1291 9.95144 9.95175 12.3876 9.67385V9.12986C12.3876 8.13057 12.4644 6.94799 11.8791 6.08471C11.3646 5.31011 10.3831 4.99081 9.5198 4.99081C7.9174 4.99081 6.48647 5.81271 6.13761 7.51563C6.06665 7.89406 5.78875 8.26657 5.41032 8.28431L1.33041 7.84675C0.987457 7.76989 0.60903 7.49198 0.703636 6.96573C1.64379 2.02253 6.10804 0.532471 10.1052 0.532471C12.151 0.532471 14.8237 1.07646 16.4379 2.62564C18.4838 4.53552 18.2887 7.08398 18.2887 9.85715V16.4087C18.2887 18.3777 19.1046 19.2409 19.8733 20.3053C20.1453 20.6837 20.2044 21.139 19.8615 21.4228C19.0041 22.1383 17.4786 23.4687 16.639 24.2137L16.6271 24.2019" fill="currentColor"/>
</svg>