<svg width="100%" height="100%" viewBox="0 0 137 46" fill="none" xmlns="http://www.w3.org/2000/svg">
<path d="M58.7124 23.59C58.7124 29.975 53.7174 34.68 47.5874 34.68C41.4574 34.68 36.4624 29.975 36.4624 23.59C36.4624 17.16 41.4574 12.5 47.5874 12.5C53.7174 12.5 58.7124 17.16 58.7124 23.59ZM53.8424 23.59C53.8424 19.6 50.9474 16.87 47.5874 16.87C44.2274 16.87 41.3324 19.6 41.3324 23.59C41.3324 27.54 44.2274 30.31 47.5874 30.31C50.9474 30.31 53.8424 27.535 53.8424 23.59Z" fill="currentColor"/>
<path d="M82.7124 23.59C82.7124 29.975 77.7174 34.68 71.5874 34.68C65.4574 34.68 60.4624 29.975 60.4624 23.59C60.4624 17.165 65.4574 12.5 71.5874 12.5C77.7174 12.5 82.7124 17.16 82.7124 23.59ZM77.8424 23.59C77.8424 19.6 74.9474 16.87 71.5874 16.87C68.2274 16.87 65.3324 19.6 65.3324 23.59C65.3324 27.54 68.2274 30.31 71.5874 30.31C74.9474 30.31 77.8424 27.535 77.8424 23.59Z" fill="currentColor"/>
<path d="M105.712 13.17V33.08C105.712 41.27 100.882 44.615 95.1721 44.615C89.7971 44.615 86.5621 41.02 85.3421 38.08L89.5822 36.315C90.3372 38.12 92.1872 40.25 95.1672 40.25C98.8222 40.25 101.087 37.995 101.087 33.75V32.155H100.917C99.8272 33.5 97.7271 34.675 95.0771 34.675C89.5321 34.675 84.4521 29.845 84.4521 23.63C84.4521 17.37 89.5321 12.5 95.0771 12.5C97.7221 12.5 99.8222 13.675 100.917 14.98H101.087V13.175H105.712V13.17ZM101.432 23.63C101.432 19.725 98.8272 16.87 95.5122 16.87C92.1522 16.87 89.3372 19.725 89.3372 23.63C89.3372 27.495 92.1522 30.31 95.5122 30.31C98.8272 30.31 101.432 27.495 101.432 23.63Z" fill="currentColor"/>
<path d="M113.337 1.5V34H108.587V1.5H113.337Z" fill="currentColor"/>
<path d="M131.847 27.24L135.627 29.76C134.407 31.565 131.467 34.675 126.387 34.675C120.087 34.675 115.382 29.805 115.382 23.585C115.382 16.99 120.127 12.495 125.842 12.495C131.597 12.495 134.412 17.075 135.332 19.55L135.837 20.81L121.012 26.95C122.147 29.175 123.912 30.31 126.387 30.31C128.867 30.31 130.587 29.09 131.847 27.24ZM120.212 23.25L130.122 19.135C129.577 17.75 127.937 16.785 126.007 16.785C123.532 16.785 120.087 18.97 120.212 23.25Z" fill="currentColor"/>
<path d="M18.4826 20.705V16H34.3376C34.4926 16.82 34.5726 17.79 34.5726 18.84C34.5726 22.37 33.6076 26.735 30.4976 29.845C27.4726 32.995 23.6076 34.675 18.4876 34.675C8.99758 34.675 1.01758 26.945 1.01758 17.455C1.01758 7.96498 8.99758 0.234985 18.4876 0.234985C23.7376 0.234985 27.4776 2.29499 30.2876 4.97999L26.9676 8.29999C24.9526 6.40999 22.2226 4.93999 18.4826 4.93999C11.5526 4.93999 6.13258 10.525 6.13258 17.455C6.13258 24.385 11.5526 29.97 18.4826 29.97C22.9776 29.97 25.5376 28.165 27.1776 26.525C28.5076 25.195 29.3826 23.295 29.7276 20.7L18.4826 20.705Z" fill="currentColor"/>
</svg>