<svg width="100%" height="100%" viewBox="0 0 167 34" fill="none" xmlns="http://www.w3.org/2000/svg">
<g clip-path="url(#clip0_520_3060)">
<path fill-rule="evenodd" clip-rule="evenodd" d="M162.653 25.5445C162.754 26.6889 163.669 28.1454 165.255 28.1454H166.183C166.542 28.1454 166.837 27.8506 166.837 27.4907V7.08464H166.833C166.815 6.74087 166.531 6.46552 166.183 6.46552H163.308C162.96 6.46552 162.676 6.74087 162.657 7.08464H162.653V8.74276C160.892 6.57141 158.115 5.67017 155.33 5.67017C148.999 5.67017 143.867 10.8059 143.867 17.1416C143.867 23.4776 148.999 28.6135 155.33 28.6135V28.6142C158.115 28.6142 161.15 27.5329 162.653 25.5419L162.653 25.5445ZM155.341 24.5986C151.315 24.5986 148.05 21.2604 148.05 17.1416C148.05 13.0236 151.315 9.68513 155.341 9.68513C159.367 9.68513 162.63 13.0236 162.63 17.1416C162.63 21.2604 159.367 24.5986 155.341 24.5986Z" fill="currentColor"/>
<path fill-rule="evenodd" clip-rule="evenodd" d="M140.233 26.2463L140.232 15.6871H140.232C140.232 9.73486 136.48 5.71942 130.496 5.71942C127.64 5.71942 125.299 7.37232 124.472 8.79218C124.293 7.68196 123.704 6.51496 121.878 6.51496H120.947C120.587 6.51496 120.292 6.80997 120.292 7.16995V25.5956C120.292 25.5961 120.292 25.5976 120.292 25.5984V27.5777H120.296C120.315 27.9209 120.599 28.1967 120.947 28.1967H123.822C123.866 28.1967 123.909 28.1914 123.951 28.1832C123.97 28.1796 123.988 28.1721 124.006 28.1668C124.028 28.1603 124.05 28.1552 124.07 28.1469C124.096 28.1362 124.119 28.122 124.143 28.1087C124.154 28.1015 124.167 28.0966 124.178 28.0889C124.207 28.0705 124.233 28.0483 124.258 28.0255C124.263 28.0212 124.268 28.0185 124.272 28.0147C124.3 27.987 124.326 27.9565 124.35 27.9248C124.35 27.9243 124.35 27.9243 124.35 27.9243C124.422 27.8253 124.465 27.7063 124.473 27.5777H124.476V15.5234C124.476 12.3266 127.066 9.73486 130.261 9.73486C133.455 9.73486 136.045 12.3266 136.045 15.5234L136.047 25.5991L136.048 25.5956C136.048 25.6046 136.05 25.6137 136.05 25.6233V27.5777H136.053C136.072 27.9209 136.356 28.1967 136.704 28.1967H139.579C139.623 28.1967 139.666 28.1914 139.708 28.1832C139.725 28.1801 139.741 28.1733 139.757 28.1686C139.781 28.1618 139.805 28.1558 139.828 28.1469C139.851 28.1371 139.873 28.1235 139.895 28.111C139.908 28.1034 139.923 28.0977 139.936 28.0889C139.962 28.0717 139.987 28.0506 140.01 28.0297C140.016 28.024 140.023 28.0199 140.029 28.0141C140.056 27.9878 140.081 27.9595 140.103 27.9297C140.104 27.9274 140.106 27.9256 140.108 27.9234C140.179 27.8253 140.222 27.7071 140.229 27.5795C140.229 27.5786 140.23 27.5777 140.23 27.5777H140.234V26.2467L140.233 26.2463Z" fill="currentColor"/>
<path fill-rule="evenodd" clip-rule="evenodd" d="M110.289 25.5445C110.39 26.6889 111.305 28.1454 112.891 28.1454H113.819C114.178 28.1454 114.473 27.8506 114.473 27.4907V7.08464H114.469C114.45 6.74087 114.166 6.46552 113.819 6.46552H110.944C110.596 6.46552 110.312 6.74087 110.292 7.08464H110.289V8.74276C108.527 6.57141 105.75 5.67017 102.965 5.67017C96.6346 5.67017 91.5029 10.8059 91.5029 17.1416C91.5029 23.4776 96.6346 28.6135 102.965 28.6135V28.6142C105.75 28.6142 108.786 27.5329 110.289 25.5419L110.289 25.5445ZM102.976 24.5986C98.9503 24.5986 95.6863 21.2604 95.6863 17.1416C95.6863 13.0236 98.9503 9.68513 102.976 9.68513C107.003 9.68513 110.266 13.0236 110.266 17.1416C110.266 21.2604 107.003 24.5986 102.976 24.5986Z" fill="currentColor"/>
<path fill-rule="evenodd" clip-rule="evenodd" d="M74.5008 22.6219C76.4201 23.9526 78.5152 24.5988 80.5284 24.5988C82.4464 24.5988 84.4292 23.6038 84.4292 21.8718C84.4292 19.5594 80.1086 19.1997 77.3938 18.2762C74.6787 17.3529 72.3403 15.4442 72.3403 12.3532C72.3403 7.62333 76.5514 5.66986 80.4818 5.66986C82.9721 5.66986 85.5416 6.49169 87.2074 7.66897C87.7811 8.104 87.4317 8.60346 87.4317 8.60346L85.8416 10.8763C85.6628 11.1323 85.3504 11.3535 84.9017 11.0764C84.4531 10.7995 82.8796 9.68495 80.4818 9.68495C78.0837 9.68495 76.6392 10.7933 76.6392 12.167C76.6392 13.8143 78.5167 14.3324 80.7157 14.8939C84.5478 15.9276 88.7281 17.1702 88.7281 21.8718C88.7281 26.0392 84.8331 28.6145 80.5284 28.6145C77.2662 28.6145 74.4888 27.6838 72.1593 25.9731C71.6741 25.4871 72.0131 25.0359 72.0131 25.0359L73.5954 22.7745C73.9173 22.3517 74.3233 22.4991 74.5008 22.6219Z" fill="currentColor"/>
<path fill-rule="evenodd" clip-rule="evenodd" d="M63.4477 25.5445C63.5483 26.6889 64.4636 28.1454 66.0494 28.1454H66.9773C67.3369 28.1454 67.6317 27.8506 67.6317 27.4907V7.08464H67.6277C67.609 6.74087 67.3249 6.46552 66.9773 6.46552H64.1022C63.7546 6.46552 63.4706 6.74087 63.4512 7.08464H63.4477V8.74276C61.6862 6.57141 58.9089 5.67017 56.1239 5.67017C49.7935 5.67017 44.6616 10.8059 44.6616 17.1416C44.6616 23.4776 49.7935 28.6135 56.1239 28.6135V28.6142C58.9089 28.6142 61.944 27.5329 63.4473 25.5419L63.4477 25.5445ZM56.1352 24.5986C52.109 24.5986 48.845 21.2604 48.845 17.1416C48.845 13.0236 52.109 9.68513 56.1352 9.68513C60.1612 9.68513 63.4248 13.0236 63.4248 17.1416C63.4248 21.2604 60.1612 24.5986 56.1352 24.5986Z" fill="currentColor"/>
<path fill-rule="evenodd" clip-rule="evenodd" d="M28.5921 17.9219C24.3319 17.9219 20.8784 21.3755 20.8784 25.6359C20.8784 29.8961 24.3319 33.3498 28.5921 33.3498C32.8523 33.3498 36.3058 29.8961 36.3058 25.6359C36.3058 21.3755 32.8523 17.9219 28.5921 17.9219ZM8.55114 17.9225C4.291 17.9225 0.837402 21.3755 0.837402 25.6359C0.837402 29.8961 4.291 33.3498 8.55114 33.3498C12.8115 33.3498 16.2652 29.8961 16.2652 25.6359C16.2652 21.3755 12.8115 17.9225 8.55114 17.9225ZM26.2852 8.27949C26.2852 12.54 22.8317 15.9939 18.5717 15.9939C14.3113 15.9939 10.8579 12.54 10.8579 8.27949C10.8579 4.01985 14.3113 0.565918 18.5717 0.565918C22.8317 0.565918 26.2852 4.01985 26.2852 8.27949Z" fill="currentColor"/>
</g>
<defs>
<clipPath id="clip0_520_3060">
<rect width="166" height="32.868" fill="currentColor" transform="translate(0.837402 0.565918)"/>
</clipPath>
</defs>
</svg>