<svg width="100%" height="100%" viewBox="0 0 77 42" fill="none" xmlns="http://www.w3.org/2000/svg">
<g clip-path="url(#clip0_520_3034)">
<path d="M74.4277 36.2001C75.3545 37.4977 75.1691 39.166 74.0569 40.0928C72.7594 41.0196 70.9057 40.8343 69.9789 39.7221L63.4911 31.3806L57.1886 39.5367C56.2618 40.8343 54.4081 40.8343 53.1106 39.9074C51.813 38.9806 51.6276 37.3123 52.5545 36.0147L59.9691 26.3757L52.5545 16.7367C51.6276 15.4391 51.9984 13.5855 53.1106 12.6586C54.4081 11.7318 56.2618 12.1025 57.1886 13.2147L63.4911 21.5562L69.9789 13.5855C70.9057 12.2879 72.574 12.1025 74.0569 13.0294C75.3545 13.9562 75.3545 15.8099 74.4277 17.1074L67.1984 26.5611L74.4277 36.2001ZM40.6911 35.0879C35.8715 35.0879 31.9789 31.3806 31.9789 26.5611C31.9789 21.9269 35.8715 18.0343 40.6911 18.0343C45.5106 18.0343 49.4033 21.9269 49.4033 26.5611C49.2179 31.3806 45.3252 35.0879 40.6911 35.0879ZM15.1106 35.0879C10.2911 35.0879 6.39838 31.3806 6.39838 26.5611C6.39838 21.9269 10.2911 18.0343 15.1106 18.0343C19.9301 18.0343 23.8228 21.9269 23.8228 26.5611C23.8228 31.3806 19.9301 35.0879 15.1106 35.0879ZM40.6911 12.4733C35.3155 12.4733 30.4959 15.4391 28.0862 19.8879C25.6764 15.4391 20.8569 12.4733 15.2959 12.4733C11.9594 12.4733 8.9935 13.5855 6.58374 15.2538V3.39035C6.58374 1.90742 5.28618 0.609863 3.80326 0.609863C2.13496 0.609863 0.837402 1.90742 0.837402 3.39035V26.7465C1.02277 34.5318 7.32521 40.6489 15.1106 40.6489C20.6715 40.6489 25.4911 37.4977 27.9008 33.0489C30.3106 37.4977 35.1301 40.6489 40.5057 40.6489C48.4764 40.6489 54.9642 34.3464 54.9642 26.3757C55.1496 18.7757 48.6618 12.4733 40.6911 12.4733Z" fill="currentColor"/>
</g>
<defs>
<clipPath id="clip0_520_3034">
<rect width="76" height="40.7805" fill="currentColor" transform="translate(0.837402 0.609863)"/>
</clipPath>
</defs>
</svg>